<svg width="177" height="33" viewBox="0 0 177 33" fill="none" xmlns="http://www.w3.org/2000/svg">
<path d="M18.096 15.764C18.9467 16.3213 19.6653 16.9813 20.252 17.744C20.868 18.4773 21.352 19.3867 21.704 20.472C22.0853 21.6747 22.276 22.892 22.276 24.124C22.3053 25.3267 22.0853 26.456 21.616 27.512C21.176 28.5387 20.4573 29.448 19.46 30.24C18.492 31.0027 17.216 31.5453 15.632 31.868C14.7813 32.0733 13.784 32.2347 12.64 32.352C11.496 32.4693 10.4693 32.528 9.56 32.528C8.416 32.5573 7.228 32.5573 5.996 32.528C4.79333 32.528 3.62 32.4107 2.476 32.176C1.97733 32.0293 1.61067 31.78 1.376 31.428C1.17067 31.0467 1.024 30.6213 0.936 30.152C0.818667 29.888 0.76 29.624 0.76 29.36V4.368C0.76 3.54667 0.921333 2.916 1.244 2.476C1.596 2.00667 2.05067 1.66933 2.608 1.464C3.16533 1.22933 3.796 1.09733 4.5 1.068C5.204 1.00933 5.93733 0.979998 6.7 0.979998C7.28667 0.979998 7.87333 0.979998 8.46 0.979998C9.076 0.950665 9.692 0.950665 10.308 0.979998C11.276 1.00933 12.2733 1.09733 13.3 1.244C14.356 1.36133 15.3533 1.596 16.292 1.948C16.732 2.09467 17.2013 2.3 17.7 2.564C18.1987 2.79867 18.5947 3.092 18.888 3.444C19.8267 4.29467 20.516 5.292 20.956 6.436C21.4253 7.55066 21.6307 8.69467 21.572 9.868C21.5133 11.012 21.1907 12.112 20.604 13.168C20.0467 14.224 19.2107 15.0893 18.096 15.764ZM10.396 27.424C11.3053 27.3653 12.2293 27.2627 13.168 27.116C14.1067 26.9693 14.752 26.6907 15.104 26.28C15.4853 25.8107 15.7493 25.268 15.896 24.652C16.072 24.0067 16.116 23.3613 16.028 22.716C15.9693 22.0413 15.7787 21.4107 15.456 20.824C15.1627 20.208 14.7667 19.724 14.268 19.372C13.5933 18.844 12.816 18.5067 11.936 18.36C11.056 18.184 10.1907 18.096 9.34 18.096C8.92933 18.096 8.548 18.1107 8.196 18.14C7.87333 18.14 7.58 18.184 7.316 18.272C7.08133 18.3307 6.90533 18.4627 6.788 18.668C6.67067 18.8733 6.612 19.1813 6.612 19.592C6.67067 20.3547 6.67067 21.1173 6.612 21.88C6.55333 22.6427 6.524 23.376 6.524 24.08C6.524 24.4907 6.50933 24.9453 6.48 25.444C6.48 25.9133 6.64133 26.3093 6.964 26.632C7.28667 26.9547 7.756 27.1747 8.372 27.292C8.988 27.4093 9.66267 27.4533 10.396 27.424ZM11.276 6.304C10.3667 6.27466 9.604 6.26 8.988 6.26C8.40133 6.23067 7.932 6.27467 7.58 6.392C7.25733 6.48 7.02267 6.7 6.876 7.052C6.75867 7.37466 6.71467 7.87333 6.744 8.548C6.744 9.10533 6.72933 9.66267 6.7 10.22C6.7 10.748 6.7 11.276 6.7 11.804C6.7 12.3907 6.89067 12.8307 7.272 13.124C7.65333 13.388 8.12267 13.5493 8.68 13.608C9.26667 13.6667 9.868 13.6667 10.484 13.608C11.1293 13.5493 11.6867 13.476 12.156 13.388C13.212 13.212 14.0187 12.86 14.576 12.332C15.1627 11.7747 15.5 10.968 15.588 9.912C15.7053 8.592 15.3533 7.68267 14.532 7.184C13.74 6.656 12.6547 6.36267 11.276 6.304ZM31.1042 28.48C31.0749 28.6267 31.0455 28.7733 31.0162 28.92C31.0162 29.0373 31.0162 29.1693 31.0162 29.316L30.7522 30.24C30.6935 30.3573 30.6495 30.4307 30.6202 30.46L30.4882 30.724C30.3415 31.0467 30.0775 31.3107 29.6962 31.516C28.9922 31.868 28.2442 31.956 27.4522 31.78C26.9535 31.7213 26.5575 31.5747 26.2642 31.34C25.9709 31.1347 25.7655 30.8853 25.6482 30.592C25.5309 30.2987 25.4429 30.0053 25.3842 29.712C25.2962 29.4187 25.2522 29.1547 25.2522 28.92V4.28C25.2522 4.07467 25.2522 3.89867 25.2522 3.752C25.2815 3.576 25.3109 3.41467 25.3402 3.268C25.3695 3.06267 25.3989 2.88667 25.4282 2.74C25.4869 2.59333 25.5455 2.432 25.6042 2.256C25.6922 1.96266 25.8535 1.728 26.0882 1.552C26.4402 1.288 26.7775 1.14133 27.1002 1.112C27.3055 1.05333 27.4962 1.024 27.6722 1.024C27.8482 0.994665 28.0535 0.979998 28.2882 0.979998C28.6989 0.979998 29.1682 1.09733 29.6962 1.332C30.1069 1.56667 30.4002 1.88933 30.5762 2.3C30.8695 2.88667 31.0162 3.42933 31.0162 3.928C31.0455 4.22133 31.0602 4.66133 31.0602 5.248C31.0895 5.83467 31.1042 6.27467 31.1042 6.568V6.744C31.1629 7.68267 31.1922 8.592 31.1922 9.472C31.1922 10.3227 31.1775 11.2613 31.1482 12.288C31.1482 13.2853 31.1335 14.2533 31.1042 15.192C31.1042 16.1013 31.1042 17.0107 31.1042 17.92V27.16C31.1042 27.2773 31.1042 27.3947 31.1042 27.512C31.1335 27.6 31.1482 27.7027 31.1482 27.82C31.1482 28.1133 31.1335 28.3333 31.1042 28.48ZM39.8533 13.476C40.7333 13.036 41.6573 12.728 42.6253 12.552C43.5933 12.3467 44.5466 12.3027 45.4853 12.42C46.4533 12.508 47.3773 12.7573 48.2573 13.168C49.1373 13.5493 49.9586 14.1067 50.7213 14.84C51.484 15.6027 52.0706 16.4387 52.4813 17.348C52.892 18.2573 53.1853 19.2693 53.3613 20.384C53.4786 21.1467 53.6693 21.8507 53.9333 22.496C54.1973 23.1413 54.476 23.7867 54.7693 24.432C55.092 25.0773 55.3853 25.7227 55.6493 26.368C55.9426 27.0133 56.1773 27.688 56.3533 28.392C56.5 29.0667 56.4413 29.7267 56.1773 30.372C55.9426 30.988 55.444 31.3693 54.6813 31.516C54.2413 31.604 53.816 31.5747 53.4053 31.428C53.024 31.252 52.672 31.0173 52.3493 30.724C52.0266 30.4013 51.7333 30.064 51.4693 29.712C51.2346 29.3307 51.0146 28.9787 50.8093 28.656C50.1346 29.536 49.4013 30.2253 48.6093 30.724C47.8173 31.1933 46.864 31.5013 45.7493 31.648C44.8106 31.7653 43.916 31.7947 43.0653 31.736C42.2146 31.6773 41.3053 31.516 40.3373 31.252C39.076 30.9293 38.0346 30.372 37.2133 29.58C36.4213 28.7587 35.8053 27.82 35.3653 26.764C34.9546 25.6787 34.7346 24.52 34.7053 23.288C34.676 22.056 34.8226 20.8387 35.1453 19.636C35.556 18.052 36.172 16.7613 36.9933 15.764C37.8146 14.7667 38.768 14.004 39.8533 13.476ZM40.9533 18.624C40.5426 19.0347 40.22 19.5187 39.9853 20.076C39.7506 20.6333 39.604 21.22 39.5453 21.836C39.516 22.452 39.5746 23.068 39.7213 23.684C39.868 24.3 40.1026 24.8427 40.4253 25.312C40.7186 25.7227 41.2173 26.0747 41.9213 26.368C42.6253 26.632 43.3586 26.7933 44.1213 26.852C45.0013 26.9107 45.764 26.676 46.4093 26.148C47.084 25.62 47.5826 24.96 47.9053 24.168C48.2573 23.3467 48.4186 22.4813 48.3893 21.572C48.36 20.6333 48.1106 19.7827 47.6413 19.02C47.2893 18.4627 46.82 18.052 46.2333 17.788C45.676 17.524 45.0746 17.392 44.4293 17.392C43.784 17.3627 43.1386 17.4653 42.4933 17.7C41.8773 17.9053 41.364 18.2133 40.9533 18.624ZM76.3819 15.06C76.6166 15.4707 76.7339 15.9107 76.7339 16.38C76.7632 16.8493 76.6606 17.2893 76.4259 17.7C76.1619 18.228 75.7806 18.5947 75.2819 18.8C74.8126 18.976 74.2846 18.9907 73.6979 18.844C73.4339 18.7853 73.1992 18.6827 72.9939 18.536C72.7886 18.3893 72.5686 18.2427 72.3339 18.096C72.1286 17.92 71.8792 17.7587 71.5859 17.612C71.3219 17.4653 70.9699 17.3627 70.5299 17.304C70.0899 17.2453 69.6059 17.2453 69.0779 17.304C68.5792 17.3627 68.1246 17.48 67.7139 17.656C67.0686 17.9787 66.5552 18.4773 66.1739 19.152C65.7926 19.7973 65.5432 20.5013 65.4259 21.264C65.3086 21.9973 65.3232 22.7453 65.4699 23.508C65.6459 24.2707 65.9686 24.916 66.4379 25.444C66.7899 25.8547 67.2446 26.192 67.8019 26.456C68.3886 26.72 68.9459 26.8813 69.4739 26.94C69.9726 26.9987 70.4712 26.9987 70.9699 26.94C71.4686 26.852 71.9526 26.7347 72.4219 26.588C72.7739 26.4413 73.1699 26.2507 73.6099 26.016C74.0499 25.752 74.4752 25.5907 74.8859 25.532C75.4139 25.532 75.8246 25.6787 76.1179 25.972C76.4112 26.236 76.6166 26.5733 76.7339 26.984C76.8512 27.3653 76.8659 27.776 76.7779 28.216C76.7192 28.656 76.5579 29.0373 76.2939 29.36C75.9419 29.8 75.4432 30.2253 74.7979 30.636C74.1526 31.0173 73.5366 31.296 72.9499 31.472C72.2459 31.7067 71.4539 31.8387 70.5739 31.868C69.7232 31.8973 68.9166 31.868 68.1539 31.78C67.8019 31.7213 67.4352 31.648 67.0539 31.56C66.6726 31.472 66.3059 31.3693 65.9539 31.252C64.6632 30.7827 63.5779 30.1227 62.6979 29.272C61.8472 28.392 61.1872 27.4093 60.7179 26.324C60.2779 25.2387 60.0286 24.08 59.9699 22.848C59.9112 21.616 60.0579 20.3987 60.4099 19.196C60.7326 18.052 61.1286 17.084 61.5979 16.292C62.0966 15.5 62.6686 14.8547 63.3139 14.356C63.9886 13.828 64.7366 13.4173 65.5579 13.124C66.3792 12.8013 67.2886 12.5227 68.2859 12.288C69.3126 12.0827 70.3979 12.0827 71.5419 12.288C72.6859 12.4933 73.7126 12.8747 74.6219 13.432C75.3259 13.8133 75.9126 14.356 76.3819 15.06ZM89.0941 21.88C89.7395 22.5547 90.2088 23.0533 90.5021 23.376C90.8248 23.6693 91.0448 23.8893 91.1621 24.036C91.3088 24.1827 91.4115 24.2707 91.4701 24.3C91.5288 24.3293 91.6315 24.4173 91.7781 24.564C91.9248 24.7107 92.1595 24.9453 92.4821 25.268C92.8048 25.5613 93.2888 26.0453 93.9341 26.72C94.4621 27.248 94.8875 27.864 95.2101 28.568C95.5621 29.2427 95.5328 29.976 95.1221 30.768C94.8875 31.1787 94.6235 31.472 94.3301 31.648C94.0368 31.7947 93.7141 31.8533 93.3621 31.824C93.0395 31.7947 92.6875 31.692 92.3061 31.516C91.9541 31.34 91.6021 31.12 91.2501 30.856C90.5755 30.3573 89.9301 29.7853 89.3141 29.14C88.6981 28.4653 88.1995 27.952 87.8181 27.6C87.5541 27.336 87.3928 27.16 87.3341 27.072C87.2755 27.0133 87.2168 26.9693 87.1581 26.94C87.0995 26.8813 87.0408 26.8227 86.9821 26.764C86.7768 26.5587 86.5568 26.3533 86.3221 26.148C86.0875 25.9427 85.8528 25.7227 85.6181 25.488V27.204C85.6181 27.5267 85.6328 27.7613 85.6621 27.908C85.6621 28.2013 85.6475 28.4213 85.6181 28.568C85.5301 28.8907 85.4861 29.1987 85.4861 29.492C85.4568 29.6387 85.4275 29.7853 85.3981 29.932C85.3688 30.0493 85.3248 30.1813 85.2661 30.328C85.2368 30.3867 85.2075 30.4307 85.1781 30.46C85.1781 30.4893 85.1781 30.5333 85.1781 30.592C85.1488 30.6507 85.1195 30.6947 85.0901 30.724C85.0901 30.7533 85.0755 30.7973 85.0461 30.856C84.8995 31.1493 84.6648 31.428 84.3421 31.692C83.7848 32.0147 83.0955 32.1027 82.2741 31.956C81.8341 31.868 81.4968 31.7067 81.2621 31.472C80.9981 31.296 80.8221 31.0467 80.7341 30.724C80.6755 30.5773 80.6168 30.4307 80.5581 30.284C80.5288 30.108 80.4848 29.9467 80.4261 29.8C80.3675 29.6533 80.3381 29.5213 80.3381 29.404C80.3381 29.2573 80.3381 29.14 80.3381 29.052V4.016C80.3381 3.84 80.3381 3.664 80.3381 3.488C80.3381 3.312 80.3528 3.136 80.3821 2.96C80.4115 2.784 80.4408 2.62267 80.4701 2.476C80.5288 2.3 80.5875 2.13866 80.6461 1.992C80.7635 1.69867 80.9101 1.464 81.0861 1.288C81.2328 1.14133 81.3795 1.03867 81.5261 0.979998C81.7021 0.891999 81.8635 0.818666 82.0101 0.759998C82.1568 0.730665 82.3181 0.715999 82.4941 0.715999C82.6995 0.686666 82.8901 0.671999 83.0661 0.671999C83.4768 0.671999 83.8875 0.789332 84.2981 1.024C84.6795 1.288 84.9581 1.62533 85.1341 2.036C85.3688 2.59333 85.4861 3.136 85.4861 3.664C85.5155 3.95733 85.5448 4.412 85.5741 5.028C85.6035 5.61466 85.6181 6.05467 85.6181 6.348V6.524C85.6475 7.492 85.6621 8.416 85.6621 9.296C85.6621 10.176 85.6621 11.1293 85.6621 12.156C85.6328 13.1827 85.6181 14.1653 85.6181 15.104C85.6181 16.0133 85.6181 16.9227 85.6181 17.832V18.316C85.8528 18.0813 86.0875 17.8613 86.3221 17.656C86.5568 17.4507 86.7768 17.2307 86.9821 16.996C87.0995 16.908 87.2168 16.8053 87.3341 16.688L87.8181 16.204C88.1995 15.8227 88.6981 15.3093 89.3141 14.664C89.9301 13.9893 90.5755 13.4027 91.2501 12.904C91.9835 12.376 92.6875 12.0533 93.3621 11.936C94.0661 11.8187 94.6528 12.1707 95.1221 12.992C95.5328 13.784 95.5621 14.532 95.2101 15.236C94.8875 15.9107 94.4621 16.5413 93.9341 17.128C93.2888 17.8027 92.8048 18.3013 92.4821 18.624C92.1595 18.9173 91.9248 19.1373 91.7781 19.284C91.6315 19.4013 91.5288 19.4747 91.4701 19.504C91.4115 19.5333 91.3088 19.6213 91.1621 19.768C91.0448 19.8853 90.8248 20.1053 90.5021 20.428C90.2088 20.7213 89.7395 21.2053 89.0941 21.88ZM122.351 24.608C122.732 25.4587 122.747 26.2947 122.395 27.116C122.043 27.908 121.485 28.6413 120.723 29.316C119.96 29.9907 119.08 30.5773 118.083 31.076C117.115 31.5747 116.191 31.9267 115.311 32.132C114.343 32.3373 113.316 32.4253 112.231 32.396C111.175 32.396 110.104 32.264 109.019 32C107.963 31.7653 106.921 31.4133 105.895 30.944C104.897 30.4453 103.973 29.844 103.123 29.14C102.096 28.2893 101.289 27.2773 100.703 26.104C100.145 24.9013 99.7346 23.6253 99.4706 22.276C99.2066 20.9267 99.0599 19.5773 99.0306 18.228C99.0306 16.8493 99.0746 15.5587 99.1626 14.356C99.2506 13.2707 99.4706 12.1413 99.8226 10.968C100.175 9.79467 100.659 8.65067 101.275 7.536C101.92 6.392 102.683 5.336 103.563 4.368C104.472 3.4 105.528 2.57867 106.731 1.904C107.64 1.376 108.652 1.024 109.767 0.848C110.911 0.642666 112.055 0.598665 113.199 0.715999C114.372 0.804 115.472 1.05333 116.499 1.464C117.555 1.84533 118.449 2.37333 119.183 3.048C119.652 3.45866 120.136 4.03066 120.635 4.764C121.163 5.49733 121.544 6.24533 121.779 7.008C122.013 7.77066 122.013 8.48933 121.779 9.164C121.573 9.80933 120.987 10.2493 120.019 10.484C119.608 10.6013 119.241 10.6307 118.919 10.572C118.596 10.484 118.303 10.352 118.039 10.176C117.775 9.97067 117.525 9.736 117.291 9.472C117.056 9.208 116.836 8.944 116.631 8.68C115.927 7.82933 115.105 7.25733 114.167 6.964C113.228 6.64133 112.289 6.568 111.351 6.744C110.441 6.89067 109.576 7.272 108.755 7.888C107.963 8.47467 107.347 9.23733 106.907 10.176C106.437 11.1733 106.056 12.2733 105.763 13.476C105.499 14.6493 105.352 15.852 105.323 17.084C105.293 18.2867 105.396 19.46 105.631 20.604C105.895 21.748 106.335 22.76 106.951 23.64C107.42 24.344 107.992 24.916 108.667 25.356C109.371 25.796 110.119 26.104 110.911 26.28C111.703 26.456 112.495 26.4853 113.287 26.368C114.108 26.2507 114.9 25.9867 115.663 25.576C115.897 25.4587 116.147 25.2973 116.411 25.092C116.704 24.8573 116.997 24.6227 117.291 24.388C117.584 24.1533 117.877 23.9333 118.171 23.728C118.493 23.5227 118.831 23.376 119.183 23.288C119.711 23.112 120.283 23.1267 120.899 23.332C121.544 23.5373 122.028 23.9627 122.351 24.608ZM131.73 15.324C131.73 16.1453 131.73 17.0693 131.73 18.096C131.759 19.1227 131.774 20.1933 131.774 21.308C131.774 22.3933 131.774 23.4787 131.774 24.564C131.774 25.62 131.759 26.6027 131.73 27.512C131.7 27.952 131.656 28.436 131.598 28.964C131.539 29.4627 131.422 29.932 131.246 30.372C131.07 30.812 130.791 31.1787 130.41 31.472C130.058 31.736 129.574 31.8533 128.958 31.824C128.048 31.7653 127.388 31.3693 126.978 30.636C126.596 29.9027 126.376 28.876 126.318 27.556C126.318 26.8813 126.303 26.104 126.274 25.224C126.274 24.344 126.259 23.4493 126.23 22.54C126.23 21.6307 126.23 20.7507 126.23 19.9C126.23 19.02 126.23 18.228 126.23 17.524C126.23 17.1133 126.215 16.6147 126.186 16.028C126.186 15.4413 126.2 14.84 126.23 14.224C126.259 13.608 126.332 13.0213 126.45 12.464C126.567 11.8773 126.758 11.3933 127.022 11.012C127.227 10.7773 127.52 10.6013 127.902 10.484C128.283 10.3373 128.679 10.264 129.09 10.264C129.53 10.264 129.94 10.3373 130.322 10.484C130.732 10.6307 131.026 10.836 131.202 11.1C131.319 11.276 131.407 11.5253 131.466 11.848C131.524 12.1707 131.568 12.5373 131.598 12.948C131.656 13.3293 131.686 13.74 131.686 14.18C131.715 14.5907 131.73 14.972 131.73 15.324ZM130.058 6.436C129.148 6.67067 128.386 6.58267 127.77 6.172C127.183 5.732 126.816 5.08666 126.67 4.236C126.552 3.62 126.596 3.07733 126.802 2.608C127.007 2.13867 127.315 1.78667 127.726 1.552C128.136 1.288 128.606 1.17066 129.134 1.2C129.662 1.22933 130.19 1.43466 130.718 1.816C131.216 2.168 131.568 2.57867 131.774 3.048C132.008 3.51733 132.082 3.972 131.994 4.412C131.935 4.852 131.744 5.26266 131.422 5.644C131.099 5.996 130.644 6.26 130.058 6.436ZM136.113 16.292C136.113 15.6173 136.098 14.8987 136.069 14.136C136.069 13.3733 136.201 12.684 136.465 12.068C136.699 11.5107 137.081 11.1147 137.609 10.88C138.166 10.616 138.709 10.5573 139.237 10.704C139.765 10.792 140.175 10.9533 140.469 11.188C140.762 11.4227 140.967 11.7013 141.085 12.024C141.231 12.3173 141.319 12.6693 141.349 13.08C141.378 13.4613 141.407 13.8427 141.437 14.224C141.73 13.696 142.097 13.2707 142.537 12.948C142.977 12.6253 143.431 12.3613 143.901 12.156C144.37 11.9507 144.81 11.804 145.221 11.716C145.661 11.628 145.998 11.584 146.233 11.584C147.347 11.584 148.447 11.8333 149.533 12.332C150.647 12.8013 151.571 13.476 152.305 14.356C152.715 14.884 153.023 15.4413 153.229 16.028C153.463 16.5853 153.625 17.172 153.713 17.788C153.83 18.404 153.903 19.0347 153.933 19.68C153.962 20.296 153.991 20.9267 154.021 21.572C154.167 23.4493 154.167 25.312 154.021 27.16C153.991 27.5413 153.977 27.9813 153.977 28.48C153.977 28.9787 153.933 29.4773 153.845 29.976C153.786 30.4453 153.654 30.8707 153.449 31.252C153.273 31.604 152.965 31.824 152.525 31.912C151.909 32.0587 151.395 32.088 150.985 32C150.603 31.9413 150.295 31.8093 150.061 31.604C149.826 31.3987 149.65 31.1347 149.533 30.812C149.415 30.4893 149.313 30.1227 149.225 29.712C149.166 29.3893 149.107 29.0227 149.049 28.612C149.019 28.172 148.99 27.732 148.961 27.292C148.961 26.852 148.946 26.4267 148.917 26.016C148.917 25.576 148.917 25.18 148.917 24.828C148.917 24.2707 148.902 23.6547 148.873 22.98C148.843 22.3053 148.843 21.6747 148.873 21.088C148.873 19.7093 148.506 18.668 147.773 17.964C147.069 17.2307 146.101 16.9227 144.869 17.04C143.93 17.1573 143.109 17.5387 142.405 18.184C141.701 18.8 141.363 19.6067 141.393 20.604C141.393 20.9853 141.393 21.3373 141.393 21.66C141.393 21.9827 141.378 22.3053 141.349 22.628C141.349 22.9507 141.349 23.3027 141.349 23.684C141.349 24.0653 141.349 24.4907 141.349 24.96C141.349 25.928 141.349 26.9547 141.349 28.04C141.349 29.096 141.217 29.9613 140.953 30.636C140.718 31.34 140.322 31.824 139.765 32.088C139.207 32.352 138.547 32.2787 137.785 31.868C137.462 31.692 137.198 31.4573 136.993 31.164C136.817 30.8413 136.67 30.504 136.553 30.152C136.465 29.8 136.406 29.448 136.377 29.096C136.347 28.7147 136.318 28.3627 136.289 28.04C136.201 27.072 136.142 26.1773 136.113 25.356C136.113 24.5053 136.113 23.596 136.113 22.628V16.292ZM172.906 25.972C173.258 25.884 173.61 25.8253 173.962 25.796C174.343 25.7667 174.681 25.8107 174.974 25.928C175.297 26.0453 175.561 26.2507 175.766 26.544C175.971 26.808 176.074 27.1893 176.074 27.688C176.074 28.04 175.986 28.3773 175.81 28.7C175.634 29.0227 175.414 29.316 175.15 29.58C174.886 29.844 174.593 30.0787 174.27 30.284C173.947 30.46 173.639 30.6067 173.346 30.724C172.495 31.1053 171.513 31.3987 170.398 31.604C169.313 31.8093 168.183 31.8827 167.01 31.824C165.426 31.7653 163.901 31.4573 162.434 30.9C160.997 30.3133 159.867 29.36 159.046 28.04C158.283 26.7493 157.829 25.312 157.682 23.728C157.535 22.144 157.609 20.648 157.902 19.24C158.225 17.5387 158.767 16.16 159.53 15.104C160.322 14.0187 161.261 13.1533 162.346 12.508C163.666 11.7453 165.147 11.3493 166.79 11.32C168.433 11.2907 170.002 11.6133 171.498 12.288C172.495 12.728 173.39 13.3293 174.182 14.092C174.974 14.8253 175.575 15.72 175.986 16.776C176.103 17.04 176.191 17.3627 176.25 17.744C176.338 18.1253 176.397 18.536 176.426 18.976C176.455 19.3867 176.455 19.7973 176.426 20.208C176.397 20.6187 176.323 20.9853 176.206 21.308C176.03 21.836 175.81 22.2467 175.546 22.54C175.282 22.8333 174.945 23.0533 174.534 23.2C174.123 23.3467 173.625 23.4493 173.038 23.508C172.481 23.5373 171.806 23.5667 171.014 23.596C170.31 23.6253 169.65 23.64 169.034 23.64C168.418 23.64 167.787 23.64 167.142 23.64C166.497 23.6107 165.822 23.596 165.118 23.596C164.443 23.5667 163.681 23.5373 162.83 23.508C162.742 24.0947 162.815 24.608 163.05 25.048C163.314 25.4587 163.666 25.8107 164.106 26.104C164.546 26.368 165.045 26.5733 165.602 26.72C166.159 26.8667 166.702 26.9547 167.23 26.984C168.227 27.0427 169.181 26.9693 170.09 26.764C170.999 26.5293 171.938 26.2653 172.906 25.972ZM171.014 17.436C170.457 16.7907 169.87 16.3213 169.254 16.028C168.785 15.8227 168.286 15.7347 167.758 15.764C167.259 15.764 166.775 15.8373 166.306 15.984C165.455 16.1893 164.737 16.6293 164.15 17.304C164.091 17.3627 163.989 17.5093 163.842 17.744C163.695 17.9493 163.549 18.1693 163.402 18.404C163.285 18.6387 163.197 18.8587 163.138 19.064C163.079 19.2693 163.109 19.372 163.226 19.372H171.85C171.821 18.9613 171.747 18.624 171.63 18.36C171.513 18.0667 171.307 17.7587 171.014 17.436Z" fill="white"/>
</svg>
